<svg width="302.60369873046875px" height="120.83141174316405px" xmlns="http://www.w3.org/2000/svg" viewBox="98.69815063476562 14.584294128417973 302.60369873046875 120.83141174316405" style="background: rgba(0, 0, 0, 0);" preserveAspectRatio="xMidYMid"><defs><filter id="editing-neon" x="-100%" y="-100%" width="300%" height="300%"><feFlood flood-color="#00ff2f" result="flood"></feFlood><feComposite operator="in" in="flood" in2="SourceAlpha" result="color"></feComposite><feFlood flood-color="#00ff2f" result="flood2"></feFlood><feComposite operator="in" in="flood2" in2="SourceAlpha" result="color2"></feComposite><feMorphology operator="dilate" radius="2" in="color" result="dilate"></feMorphology><feGaussianBlur stdDeviation="6" in="color" result="blur1"></feGaussianBlur><feGaussianBlur stdDeviation="2.5" in="color" result="blur2"></feGaussianBlur><feGaussianBlur stdDeviation="1" in="SourceAlpha" result="blur3"></feGaussianBlur><feGaussianBlur stdDeviation="6" in="dilate" result="blur4"></feGaussianBlur><feConvolveMatrix in="color2" result="conv" order="3,3" divisor="1" kernelMatrix="1 1 1  1 1 1  1 1 1"></feConvolveMatrix><feMerge><feMergeNode in="blur1"></feMergeNode><feMergeNode in="blur2"></feMergeNode><feMergeNode in="blur4"></feMergeNode><feMergeNode in="blur3"></feMergeNode><feMergeNode in="blur3"></feMergeNode><feMergeNode in="blur3"></feMergeNode><feMergeNode in="blur3"></feMergeNode><feMergeNode in="conv"></feMergeNode><feMergeNode in="SourceGraphic"></feMergeNode></feMerge></filter></defs><g filter="url(#editing-neon)"><g transform="translate(145.1315598487854, 97.4715633392334)"><path d="M6.21-31.17L6.21-31.17L6.21-31.17Q4.03-32.83 4.03-36.38L4.03-36.38L4.03-36.38Q4.03-39.94 6.37-41.79L6.37-41.79L6.37-41.79Q8.70-43.65 12.74-43.65L12.74-43.65L12.74-43.65Q15.30-43.65 21.38-42.75L21.38-42.75L25.73-42.11L25.73-42.11Q27.90-41.86 30.18-41.86L30.18-41.86L30.18-41.86Q32.45-41.86 33.98-42.82L33.98-42.82L33.98-42.82Q36.29-40.77 36.29-37.82L36.29-37.82L36.29-37.82Q36.29-34.88 33.66-32.77L33.66-32.77L33.66-32.77Q30.98-30.53 27.52-30.53L27.52-30.53L27.52-30.53Q25.86-30.53 23.17-30.98L23.17-30.98L23.17-30.98Q20.03-21.12 20.03-14.27L20.03-14.27L20.03-14.27Q20.03-7.42 23.49-3.84L23.49-3.84L23.49-3.84Q21.89-0.96 19.52 0.16L19.52 0.16L19.52 0.16Q17.15 1.28 13.60 1.28L13.60 1.28L13.60 1.28Q10.05 1.28 7.84-0.67L7.84-0.67L7.84-0.67Q5.63-2.62 5.63-6.66L5.63-6.66L5.63-6.66Q5.63-11.33 8.19-19.01L8.19-19.01L8.19-19.01Q10.75-26.62 14.59-32.45L14.59-32.45L14.59-32.45Q12.74-32.64 10.82-32.64L10.82-32.64L10.82-32.64Q6.85-32.64 6.21-31.17ZM47.36 0L33.66 0L41.47-42.05L41.47-42.05Q47.81-42.75 57.06-42.75L57.06-42.75L57.06-42.75Q66.30-42.75 70.59-40.06L70.59-40.06L70.59-40.06Q74.88-37.38 74.88-31.97L74.88-31.97L74.88-31.97Q74.88-26.56 72.10-23.17L72.10-23.17L72.10-23.17Q69.31-19.78 64.51-18.69L64.51-18.69L64.51-18.69Q65.60-13.38 68.10-9.09L68.10-9.09L68.10-9.09Q70.40-5.06 73.09-3.78L73.09-3.78L73.09-3.78Q72.13-1.09 70.18 0.10L70.18 0.10L70.18 0.10Q68.22 1.28 65.44 1.28L65.44 1.28L65.44 1.28Q62.66 1.28 60.48-0.35L60.48-0.35L60.48-0.35Q58.30-1.98 56.58-4.99L56.58-4.99L56.58-4.99Q52.93-11.52 52.54-21.82L52.54-21.82L52.99-21.82L52.99-21.82Q57.73-21.95 60.10-24.42L60.10-24.42L60.10-24.42Q62.46-26.88 62.46-32.06L62.46-32.06L62.46-32.06Q62.46-38.53 57.02-38.78L57.02-38.78L55.62-38.78L55.62-38.78Q55.04-38.78 54.72-38.72L54.72-38.72L47.36 0ZM105.15-9.86L105.15-9.86L105.15-9.86Q106.37-8.32 106.37-5.82L106.37-5.82L106.37-5.82Q106.37-2.37 103.81-0.54L103.81-0.54L103.81-0.54Q101.25 1.28 97.22 1.28L97.22 1.28L97.22 1.28Q94.91 1.28 91.39 0.77L91.39 0.77L91.39 0.77Q84.48-0.32 82.37-0.32L82.37-0.32L82.37-0.32Q80.26-0.32 79.42-0.22L79.42-0.22L79.42-0.22Q78.59-0.13 77.25 0L77.25 0L85.12-42.24L112.70-42.24L112.70-42.24Q112.70-38.34 110.82-36.29L110.82-36.29L110.82-36.29Q108.93-34.24 105.22-34.24L105.22-34.24L105.22-34.24Q101.50-34.24 97.73-35.97L97.73-35.97L95.74-24.77L107.14-24.77L107.14-24.77Q107.14-21.38 105.47-19.49L105.47-19.49L105.47-19.49Q103.81-17.60 101.02-17.60L101.02-17.60L101.02-17.60Q98.24-17.60 96.51-18.24L96.51-18.24L96.51-18.24Q94.78-18.88 94.59-19.07L94.59-19.07L92.29-6.98L92.29-6.98Q93.82-6.78 96.70-6.78L96.70-6.78L96.70-6.78Q101.63-6.78 105.15-9.86ZM111.62-0.32L111.62-0.32L119.68-42.24L119.68-42.24Q127.23-42.88 132.10-42.88L132.10-42.88L132.10-42.88Q136.96-42.88 140.10-42.46L140.10-42.46L140.10-42.46Q143.23-42.05 145.34-40.96L145.34-40.96L145.34-40.96Q149.57-38.91 149.57-33.28L149.57-33.28L149.57-33.28Q149.57-30.02 146.75-27.26L146.75-27.26L146.75-27.26Q144.13-24.77 141.25-24.19L141.25-24.19L141.25-24.19Q144.32-23.68 146.50-21.38L146.50-21.38L146.50-21.38Q148.80-18.94 148.80-15.17L148.80-15.17L148.80-15.17Q148.80-7.87 143.36-3.62L143.36-3.62L143.36-3.62Q137.92 0.64 127.23 0.64L127.23 0.64L127.23 0.64Q119.87 0.64 111.62-0.32ZM129.02-20.61L125.82-4.03L125.82-4.03Q126.40-3.97 126.53-3.97L126.53-3.97L127.10-3.97L127.10-3.97Q132.35-3.97 134.59-7.42L134.59-7.42L134.59-7.42Q136.26-10.11 136.26-15.04L136.26-15.04L136.26-15.04Q136.26-17.66 134.56-19.07L134.56-19.07L134.56-19.07Q132.86-20.48 129.02-20.61L129.02-20.61ZM138.75-33.22L138.75-33.22L138.75-33.22Q138.75-38.53 133.63-38.53L133.63-38.53L133.06-38.53L133.06-38.53Q132.80-38.53 132.42-38.46L132.42-38.46L129.86-24.96L130.50-24.96L130.50-24.96Q138.75-25.15 138.75-33.22ZM166.27 0L152.32 0L160.45-42.24L174.53-42.24L166.27 0ZM187.39-3.78L187.39-3.78L187.39-3.78Q187.39-6.21 189.22-7.52L189.22-7.52L189.22-7.52Q191.04-8.83 193.73-8.83L193.73-8.83L193.73-8.83Q196.42-8.83 198.11-7.52L198.11-7.52L198.11-7.52Q199.81-6.21 199.81-3.78L199.81-3.78L199.81-3.78Q199.81-1.34 197.92 0L197.92 0L197.92 0Q196.03 1.34 193.34 1.34L193.34 1.34L193.34 1.34Q190.66 1.34 189.02 0L189.02 0L189.02 0Q187.39-1.34 187.39-3.78ZM190.85-15.81L190.85-15.81L190.85-15.81Q190.85-16.26 190.98-16.90L190.98-16.90L195.97-42.62L195.97-42.62Q198.34-43.52 201.15-43.52L201.15-43.52L201.15-43.52Q203.97-43.52 205.44-41.73L205.44-41.73L205.44-41.73Q206.91-39.94 206.91-37.28L206.91-37.28L206.91-37.28Q206.91-34.62 205.89-31.65L205.89-31.65L205.89-31.65Q204.86-28.67 203.62-25.66L203.62-25.66L203.62-25.66Q202.37-22.66 201.31-19.55L201.31-19.55L201.31-19.55Q200.26-16.45 200.19-13.18L200.19-13.18L200.19-13.18Q198.72-11.52 196.16-11.52L196.16-11.52L196.16-11.52Q193.60-11.52 192.22-12.70L192.22-12.70L192.22-12.70Q190.85-13.89 190.85-15.81Z" fill="none" stroke="#e9ffd4" stroke-width="1"></path></g></g><style>text {
  font-size: 64px;
  font-family: Arial Black;
  dominant-baseline: central;
  text-anchor: middle;
}</style></svg>